REM DIRINDEX 1\2\5,1\2\6,1\2\7,1\2\8,1\3\9,1\3\10,1\3\11,1\4\12,1\4\13,1\4\14,1\4\15,1\4\16
REM DIRNAME cjc034,folder01,folder02,folder03,folder04,folder05,folder06,folder07,folder08,folder09,folder10,folder11,folder12,folder13,folder14,folder15
TITLE ""
FILE "1200_sec01_0093_0100.mp3" MP3
  TRACK 01 AUDIO
    TITLE "0:"
    INDEX 01 00:00:00
  TRACK 02 AUDIO
    TITLE "12:cjc034_03998"
    INDEX 01 00:00:17
  TRACK 03 AUDIO
    TITLE "0:"
    INDEX 01 00:01:34
  TRACK 04 AUDIO
    TITLE "13:cjc034_03999"
    INDEX 01 00:01:68
  TRACK 05 AUDIO
    TITLE "0:"
    INDEX 01 00:03:21
  TRACK 06 AUDIO
    TITLE "14:cjc034_04000"
    INDEX 01 00:03:55
  TRACK 07 AUDIO
    TITLE "0:"
    INDEX 01 00:04:70
  TRACK 08 AUDIO
    TITLE "15:cjc034_04001"
    INDEX 01 00:05:30
  TRACK 09 AUDIO
    TITLE "0:"
    INDEX 01 00:08:73
  TRACK 10 AUDIO
    TITLE "12:cjc034_04002"
    INDEX 01 00:10:33
  TRACK 11 AUDIO
    TITLE "0:"
    INDEX 01 00:11:37
  TRACK 12 AUDIO
    TITLE "13:cjc034_04003"
    INDEX 01 00:11:72
  TRACK 13 AUDIO
    TITLE "0:"
    INDEX 01 00:15:09
  TRACK 14 AUDIO
    TITLE "14:cjc034_04004"
    INDEX 01 00:15:44
  TRACK 15 AUDIO
    TITLE "0:"
    INDEX 01 00:16:49
  TRACK 16 AUDIO
    TITLE "15:cjc034_04005"
    INDEX 01 00:17:08
  TRACK 17 AUDIO
    TITLE "0:"
    INDEX 01 00:20:18
  TRACK 18 AUDIO
    TITLE "12:cjc034_04006"
    INDEX 01 00:21:51
  TRACK 19 AUDIO
    TITLE "0:"
    INDEX 01 00:22:54
  TRACK 20 AUDIO
    TITLE "13:cjc034_04007"
    INDEX 01 00:23:12
  TRACK 21 AUDIO
    TITLE "0:"
    INDEX 01 00:27:00
  TRACK 22 AUDIO
    TITLE "14:cjc034_04008"
    INDEX 01 00:27:32
  TRACK 23 AUDIO
    TITLE "0:"
    INDEX 01 00:28:37
  TRACK 24 AUDIO
    TITLE "15:cjc034_04009"
    INDEX 01 00:28:68
  TRACK 25 AUDIO
    TITLE "0:"
    INDEX 01 00:32:43
  TRACK 26 AUDIO
    TITLE "12:cjc034_04010"
    INDEX 01 00:33:73
  TRACK 27 AUDIO
    TITLE "0:"
    INDEX 01 00:35:04
  TRACK 28 AUDIO
    TITLE "13:cjc034_04011"
    INDEX 01 00:35:37
  TRACK 29 AUDIO
    TITLE "0:"
    INDEX 01 00:36:42
  TRACK 30 AUDIO
    TITLE "14:cjc034_04012"
    INDEX 01 00:37:01
  TRACK 31 AUDIO
    TITLE "0:"
    INDEX 01 00:38:04
  TRACK 32 AUDIO
    TITLE "15:cjc034_04013"
    INDEX 01 00:38:37
  TRACK 33 AUDIO
    TITLE "0:"
    INDEX 01 00:41:22
  TRACK 34 AUDIO
    TITLE "12:cjc034_04014"
    INDEX 01 00:42:55
  TRACK 35 AUDIO
    TITLE "0:"
    INDEX 01 00:43:70
  TRACK 36 AUDIO
    TITLE "13:cjc034_04015"
    INDEX 01 00:44:28
  TRACK 37 AUDIO
    TITLE "0:"
    INDEX 01 00:45:51
  TRACK 38 AUDIO
    TITLE "14:cjc034_04016"
    INDEX 01 00:46:07
  TRACK 39 AUDIO
    TITLE "0:"
    INDEX 01 00:47:21
  TRACK 40 AUDIO
    TITLE "15:cjc034_04017"
    INDEX 01 00:47:56
  TRACK 41 AUDIO
    TITLE "0:"
    INDEX 01 00:50:27
  TRACK 42 AUDIO
    TITLE "12:cjc034_04018"
    INDEX 01 00:51:65
  TRACK 43 AUDIO
    TITLE "0:"
    INDEX 01 00:53:04
  TRACK 44 AUDIO
    TITLE "13:cjc034_04019"
    INDEX 01 00:53:39
  TRACK 45 AUDIO
    TITLE "0:"
    INDEX 01 00:54:60
  TRACK 46 AUDIO
    TITLE "14:cjc034_04020"
    INDEX 01 00:55:22
  TRACK 47 AUDIO
    TITLE "0:"
    INDEX 01 00:56:35
  TRACK 48 AUDIO
    TITLE "15:cjc034_04021"
    INDEX 01 00:56:69
  TRACK 49 AUDIO
    TITLE "0:"
    INDEX 01 00:59:34
  TRACK 50 AUDIO
    TITLE "12:cjc034_04022"
    INDEX 01 01:00:66
  TRACK 51 AUDIO
    TITLE "0:"
    INDEX 01 01:02:06
  TRACK 52 AUDIO
    TITLE "13:cjc034_04023"
    INDEX 01 01:02:38
  TRACK 53 AUDIO
    TITLE "0:"
    INDEX 01 01:06:00
  TRACK 54 AUDIO
    TITLE "14:cjc034_04024"
    INDEX 01 01:06:34
  TRACK 55 AUDIO
    TITLE "0:"
    INDEX 01 01:07:45
  TRACK 56 AUDIO
    TITLE "15:cjc034_04025"
    INDEX 01 01:08:05
  TRACK 57 AUDIO
    TITLE "0:"
    INDEX 01 01:11:13
  TRACK 58 AUDIO
    TITLE "12:cjc034_04026"
    INDEX 01 01:12:60
  TRACK 59 AUDIO
    TITLE "0:"
    INDEX 01 01:13:57
  TRACK 60 AUDIO
    TITLE "13:cjc034_04027"
    INDEX 01 01:14:17
  TRACK 61 AUDIO
    TITLE "0:"
    INDEX 01 01:15:21
  TRACK 62 AUDIO
    TITLE "14:cjc034_04028"
    INDEX 01 01:15:56
  TRACK 63 AUDIO
    TITLE "0:"
    INDEX 01 01:16:54
  TRACK 64 AUDIO
    TITLE "15:cjc034_04029"
    INDEX 01 01:17:14
  TRACK 65 AUDIO
    TITLE "0:"
    INDEX 01 01:20:08
